<svg width="512" height="512" viewBox="0 0 512 512" style="color:currentColor" xmlns="http://www.w3.org/2000/svg" class="h-full w-full"><rect width="512" height="512" x="0" y="0" rx="30" fill="transparent" stroke="transparent" stroke-width="0" stroke-opacity="100%" paint-order="stroke"></rect><svg width="256px" height="256px" viewBox="0 0 24 24" fill="currentColor" x="128" y="128" role="img" style="display:inline-block;vertical-align:middle" xmlns="http://www.w3.org/2000/svg"><g fill="currentColor"><path fill="currentColor" d="M4 20v-7h7l-3.217 3.22A5.917 5.917 0 0 0 12 18a6 6 0 0 0 5.648-4h.018c.114-.325.201-.66.259-1h2.012A8 8 0 0 1 12 20h-.01a7.941 7.941 0 0 1-5.653-2.34L4 20Zm2.074-9H4.062a8 8 0 0 1 7.933-7H12a7.94 7.94 0 0 1 5.654 2.34L20 4v7h-7l3.222-3.22A5.916 5.916 0 0 0 12 6a6 6 0 0 0-5.648 4h-.018c-.115.325-.202.66-.259 1h-.001Z"/></g></svg></svg>